# xmcd
#
# Track frame offsets:
#	150
#	29551
#	53114
#	68778
#	86832
#	113577
#	118273
#	131431
#	142880
#	156074
#	167259
#	177961
#
# Disc length: 2644 seconds
#
# Revision: 1
# Processed by: cddbd v1.5.2PL0 Copyright (c) Steve Scherf et al.
# Submitted via: audiograbber 1.83.01
#
DISCID=9b0a520c
DTITLE=TRIffNIX - Horns - Gelb
DYEAR=1900
DGENRE=
TTITLE0=Chameleon
TTITLE1=Birdland
TTITLE2=Caravans
TTITLE3=Watermelon Man
TTITLE4=Children of Sanchez
TTITLE5=Child's Anthem
TTITLE6=Rosanna
TTITLE7=I'll be over you
TTITLE8=Stop loving you
TTITLE9=Africa
TTITLE10=Hold the line
TTITLE11=Leningrad
EXTD=
EXTT0=
EXTT1=
EXTT2=
EXTT3=
EXTT4=
EXTT5=
EXTT6=
EXTT7=
EXTT8=
EXTT9=
EXTT10=
EXTT11=
PLAYORDER=
